# xmcd
#
# Track frame offsets:
#	150
#	18684
#	36665
#	53075
#	69671
#	88020
#	103206
#	117800
#	132240
#	148340
#	169213
#	184215
#	200120
#	217322
#
# Disc length: 3098 seconds
#
# Revision: 1
# Processed by: cddbd v1.5.2PL0 Copyright (c) Steve Scherf et al.
# Submitted via: audiograbber 1.83.01
#
DISCID=e90c180e
DTITLE=Various Artist - SD166
DYEAR=2008
DGENRE=Karaoke
TTITLE0=Rascal Flatts - Every Day
TTITLE1=Brad Paisley - I'm Still A Guy
TTITLE2=Tim McGraw - Kristofferson
TTITLE3=Taylor Swift - I'm Only Me When I'm With You
TTITLE4=Montgomery Gentry - Back When I Knew It All
TTITLE5=Gary Allan - Learning How To Bend
TTITLE6=Toby Keith - She's A Hottie
TTITLE7=Luke Bryan - Country Man
TTITLE8=Crystal Shawanda - You Can Let Go
TTITLE9=Point Of Grace - How You Live (Turn It Up)
TTITLE10=Lost Trailers - Holler Back
TTITLE11=Jennifer Hanson - 73
TTITLE12=Lonestar - Let Me Love You
TTITLE13=Clint Black - Long Cool Woman
EXTD=
EXTT0=
EXTT1=
EXTT2=
EXTT3=
EXTT4=
EXTT5=
EXTT6=
EXTT7=
EXTT8=
EXTT9=
EXTT10=
EXTT11=
EXTT12=
EXTT13=
PLAYORDER=
